<?xml version="1.0" encoding="UTF-8" standalone="no"?>
<svg xmlns="http://www.w3.org/2000/svg" xmlns:xlink="http://www.w3.org/1999/xlink" height="3.5in" preserveAspectRatio="none" viewBox="-120 -168 240 336" width="2.5in"><defs><symbol id="B1" preserveAspectRatio="none" viewBox="0 0 240 355"><path style=" stroke:none;fill-rule:nonzero;fill:rgb(0%,0%,0%);fill-opacity:1;" d="M 109.941406 8.25 C 106.992188 8.433594 104.097656 8.808594 101.308594 9.3125 C 100.59375 9.445312 99.449219 9.632812 98.785156 9.710938 C 94.777344 10.246094 85.667969 12.691406 80.332031 14.6875 C 68.910156 18.945312 59.351562 24.402344 49.261719 32.4375 C 45.675781 35.3125 37.496094 43.347656 34.46875 46.964844 C 25.414062 57.875 17.871094 71.609375 14.101562 84.085938 C 13.648438 85.632812 13.144531 87.226562 13.039062 87.679688 C 12.1875 90.449219 11.074219 95.476562 10.515625 98.988281 C 10.304688 100.371094 9.90625 102.820312 9.640625 104.445312 C 8.949219 108.703125 8.949219 126.742188 9.640625 131.054688 C 9.90625 132.652344 10.304688 135.125 10.515625 136.507812 C 10.941406 139.222656 11.3125 140.953125 12.375 145.15625 C 12.746094 146.621094 13.144531 148.246094 13.277344 148.75 C 13.410156 149.253906 13.753906 150.398438 14.074219 151.277344 C 14.394531 152.15625 14.765625 153.21875 14.871094 153.671875 C 15.5625 156.148438 17.632812 161.175781 20.101562 166.3125 C 27.246094 181.132812 38.558594 194.839844 52.578125 205.5625 C 57.652344 209.449219 65.433594 214.15625 71.300781 216.898438 C 75.710938 218.945312 76.347656 219.214844 79.402344 220.332031 C 81.074219 220.941406 82.878906 221.609375 83.382812 221.792969 C 83.890625 221.980469 85.03125 222.351562 85.90625 222.59375 C 86.785156 222.859375 87.871094 223.152344 88.296875 223.3125 C 93.582031 225.039062 103.246094 226.691406 111.320312 227.25 C 120.800781 227.914062 131.875 227.117188 141.144531 225.148438 C 151.179688 223.019531 159.332031 220.117188 168.414062 215.515625 C 173.140625 213.121094 181.320312 207.957031 184.640625 205.324219 C 193.191406 198.484375 200.652344 190.953125 206.070312 183.742188 C 207.292969 182.117188 207.453125 181.90625 209.550781 178.820312 C 216.164062 169.1875 221.976562 156.015625 224.660156 144.625 C 224.980469 143.296875 225.402344 141.511719 225.589844 140.632812 C 225.960938 139.0625 226.304688 136.988281 227.234375 130.789062 C 227.925781 126.105469 227.925781 109.101562 227.234375 104.445312 C 226.464844 99.386719 225.988281 96.59375 225.535156 94.597656 C 222.191406 79.378906 216.878906 67.21875 208.007812 54.285156 C 204 48.457031 195.898438 39.488281 190.484375 34.886719 C 181.160156 26.957031 173.859375 22.324219 162.679688 17.191406 C 153.996094 13.199219 142.761719 10.191406 130.785156 8.648438 C 127.042969 8.167969 114.480469 7.902344 109.941406 8.25 Z M 125.34375 14.503906 C 139.894531 15.621094 151.976562 18.839844 163.847656 24.746094 C 169.050781 27.328125 169.714844 27.699219 173.273438 29.9375 C 182.703125 35.84375 192.34375 44.464844 199.191406 53.085938 C 207.238281 63.171875 214.195312 76.53125 217.382812 87.945312 C 219.851562 96.808594 220.96875 103.273438 221.5 112.054688 C 221.792969 116.816406 221.765625 118.414062 221.367188 124.296875 C 221.128906 128.019531 220.675781 132.492188 220.382812 134.246094 C 220.09375 136.003906 219.746094 137.972656 219.640625 138.636719 C 219.535156 139.304688 219.296875 140.316406 219.136719 140.898438 C 218.976562 141.484375 218.578125 142.921875 218.285156 144.09375 C 217.382812 147.792969 216.71875 149.839844 215.367188 153.539062 C 214.886719 154.789062 214.328125 156.28125 214.117188 156.839844 C 213.402344 158.835938 210.558594 164.847656 209.417969 166.84375 C 208.78125 167.9375 207.929688 169.425781 207.53125 170.171875 C 207.132812 170.890625 206.628906 171.6875 206.441406 171.925781 C 206.230469 172.140625 206.070312 172.433594 206.070312 172.511719 C 206.070312 172.777344 202.195312 178.472656 200.652344 180.414062 C 195.847656 186.617188 189.183594 193.480469 183.632812 198.003906 C 175.71875 204.472656 166.636719 209.847656 157.074219 213.757812 C 152.773438 215.515625 145.789062 217.722656 141.808594 218.574219 C 140.71875 218.8125 138.992188 219.160156 137.957031 219.398438 C 135.167969 219.984375 130.945312 220.542969 126.804688 220.863281 C 105.214844 222.566406 83.730469 217.5625 65.328125 206.546875 C 50.960938 197.925781 38.238281 185.230469 29.953125 171.234375 C 29.078125 169.773438 28.28125 168.386719 28.121094 168.175781 C 27.988281 167.960938 26.953125 165.859375 25.785156 163.519531 C 23.421875 158.675781 21.617188 154.230469 20.15625 149.546875 C 19.835938 148.589844 19.4375 147.339844 19.253906 146.753906 C 18.828125 145.476562 17.445312 139.703125 16.996094 137.308594 C 16.011719 132.039062 15.164062 123.042969 15.136719 117.882812 C 15.136719 112.773438 16.121094 102.101562 16.996094 98.058594 C 17.128906 97.472656 17.421875 96.089844 17.660156 94.996094 C 18.136719 92.734375 18.75 90.367188 19.28125 88.613281 C 19.757812 87.066406 21.484375 81.824219 21.777344 81.082031 C 22.8125 78.3125 23.609375 76.449219 24.988281 73.496094 C 25.574219 72.273438 26.023438 71.234375 26.023438 71.207031 C 26.023438 71.074219 29.15625 65.539062 30.40625 63.464844 C 32.714844 59.605469 36.382812 54.550781 39.621094 50.691406 C 41.90625 47.976562 49.207031 40.6875 51.785156 38.53125 C 62.988281 29.191406 74.808594 22.804688 89.09375 18.386719 C 90.34375 17.988281 97.40625 16.339844 99.183594 16.019531 C 104.761719 14.980469 112.488281 14.210938 117.507812 14.128906 C 118.96875 14.128906 122.5 14.289062 125.34375 14.503906 Z M 125.34375 14.503906 "/></symbol><symbol id="B2" preserveAspectRatio="none" viewBox="0 0 240 355"><path style=" stroke:none;fill-rule:nonzero;fill:rgb(0%,0%,0%);fill-opacity:1;" d="M 149.746094 55.988281 C 147.570312 56.757812 145.949219 58.488281 144.144531 61.867188 C 143.292969 63.464844 141.753906 68.308594 141.195312 71.046875 C 139.816406 77.753906 139.816406 77.78125 139.816406 86.214844 C 139.816406 94.546875 139.972656 96.355469 141.167969 101.785156 C 142.578125 108.144531 145.390625 112.746094 148.5 113.785156 C 153.171875 115.328125 157.050781 111.734375 159.679688 103.378906 C 161.429688 97.792969 162.175781 93.269531 162.414062 86.484375 C 162.734375 77.167969 161.777344 69.558594 159.597656 63.597656 C 157.394531 57.585938 153.542969 54.628906 149.746094 55.988281 Z M 149.746094 55.988281 "/></symbol><symbol id="B3" preserveAspectRatio="none" viewBox="0 0 240 355"><path style=" stroke:none;fill-rule:nonzero;fill:rgb(0%,0%,0%);fill-opacity:1;" d="M 82.453125 56.867188 C 81.605469 57.078125 79.773438 58.460938 78.871094 59.527344 C 76.136719 62.851562 73.691406 70.675781 72.710938 79.296875 C 72.019531 85.339844 72.523438 98.269531 73.558594 100.984375 C 73.691406 101.359375 73.824219 101.941406 73.824219 102.261719 C 73.824219 103.300781 75.628906 108.542969 76.53125 110.113281 C 77.59375 112 79.558594 113.996094 80.863281 114.53125 C 82.03125 115.035156 84.394531 115.089844 85.429688 114.636719 C 89.945312 112.695312 93.238281 105.082031 94.855469 92.734375 C 95.734375 86.03125 94.9375 73.257812 93.289062 67.324219 C 91.855469 62.1875 89.519531 58.460938 87.023438 57.238281 C 85.90625 56.707031 83.808594 56.546875 82.453125 56.867188 Z M 82.453125 56.867188 "/></symbol><symbol id="B4" preserveAspectRatio="none" viewBox="0 0 240 355"><path style=" stroke:none;fill-rule:nonzero;fill:rgb(0%,0%,0%);fill-opacity:1;" d="M 188.597656 114.769531 C 187.640625 115.78125 187.828125 116.660156 189.421875 118.226562 C 190.164062 118.972656 191.253906 119.957031 191.835938 120.382812 L 192.847656 121.128906 L 192.660156 122.644531 C 192.582031 123.46875 192.34375 124.722656 192.128906 125.464844 C 191.917969 126.183594 191.570312 127.570312 191.304688 128.527344 C 190.507812 131.585938 190.136719 132.863281 189.316406 135.445312 C 188.226562 138.902344 186.710938 142.976562 186.394531 143.296875 C 186.261719 143.429688 186.15625 143.667969 186.15625 143.855469 C 186.15625 144.199219 183.660156 149.46875 182.648438 151.277344 C 179.78125 156.332031 177.761719 159.289062 173.25 164.980469 C 171.097656 167.695312 165.867188 172.753906 162.121094 175.757812 C 150.996094 184.621094 139.707031 189.488281 125.980469 191.351562 C 122.394531 191.832031 120.90625 191.886719 116.046875 191.777344 C 106.355469 191.539062 98.363281 189.808594 89.625 186.058594 C 77.96875 181.027344 65.59375 170.542969 57.652344 158.996094 C 56.910156 157.902344 56.296875 156.945312 56.296875 156.867188 C 56.296875 156.757812 55.953125 156.199219 55.527344 155.589844 C 53.933594 153.21875 51.277344 148.03125 49.605469 143.960938 C 48.277344 140.742188 46.445312 135.207031 45.542969 131.71875 C 45.304688 130.761719 44.957031 129.378906 44.746094 128.660156 C 44.558594 127.914062 44.320312 126.582031 44.214844 125.679688 L 44.027344 124.003906 L 44.90625 123.550781 C 46.417969 122.726562 47.429688 121.660156 48.277344 120.039062 C 49.261719 118.203125 49.3125 117.667969 48.570312 116.710938 C 47.851562 115.808594 46.765625 115.808594 44.878906 116.710938 C 44.082031 117.085938 42.460938 117.589844 41.242188 117.828125 C 39.355469 118.203125 38.664062 118.203125 36.382812 117.910156 C 33.59375 117.5625 32.929688 117.695312 32.425781 118.628906 C 32.292969 118.867188 32.238281 119.425781 32.316406 119.824219 C 32.449219 120.570312 34.46875 122.777344 36.0625 123.949219 C 36.539062 124.296875 36.964844 124.828125 37.019531 125.148438 C 37.097656 125.464844 37.335938 126.742188 37.574219 127.996094 C 38.398438 132.4375 39.753906 137.546875 40.789062 140.289062 C 41.160156 141.273438 41.558594 142.335938 42.382812 144.546875 C 42.621094 145.183594 42.96875 146.035156 43.152344 146.488281 C 43.363281 146.914062 43.789062 147.871094 44.082031 148.617188 C 46.128906 153.355469 49.683594 159.660156 52.792969 164.15625 C 57.679688 171.183594 65.140625 178.660156 72.628906 184.007812 C 73.636719 184.753906 74.699219 185.445312 74.941406 185.605469 C 75.179688 185.738281 76.558594 186.589844 77.992188 187.496094 C 79.425781 188.371094 81.019531 189.332031 81.527344 189.597656 C 82.03125 189.835938 83.464844 190.554688 84.710938 191.191406 C 85.960938 191.804688 87.605469 192.578125 88.375 192.894531 C 89.121094 193.1875 90.394531 193.722656 91.136719 194.011719 C 95.890625 195.957031 102.691406 197.605469 109.753906 198.511719 C 115.597656 199.253906 127.253906 198.484375 134.238281 196.886719 C 135.539062 196.59375 136.203125 196.410156 139.550781 195.449219 C 147.570312 193.164062 156.625 188.691406 163.078125 183.796875 C 164.300781 182.890625 165.785156 181.746094 166.421875 181.265625 C 168.761719 179.511719 173.140625 175.226562 176.542969 171.34375 C 182.039062 165.113281 185.675781 159.871094 189.765625 152.210938 C 190.296875 151.226562 192.527344 146.355469 192.527344 146.167969 C 192.527344 146.089844 192.6875 145.664062 192.898438 145.210938 C 193.617188 143.480469 193.882812 142.816406 194.730469 140.15625 C 196.644531 134.300781 197.757812 129.589844 198.398438 124.800781 C 198.820312 121.476562 198.953125 121.207031 200.28125 120.515625 C 202.726562 119.265625 204.742188 117.109375 204.742188 115.726562 C 204.742188 114.078125 203.628906 113.863281 200.230469 114.820312 C 198.15625 115.40625 194.546875 115.355469 192.476562 114.6875 C 190.242188 113.996094 189.316406 113.996094 188.597656 114.769531 Z M 188.597656 114.769531 "/></symbol></defs><rect width="239" height="335" x="-119.5" y="-167.5" rx="12" ry="12" fill="white" stroke="black"/><use width="202.8" height="312" x="-101.4" y="-106" xlink:href="#B1"/><use width="202.8" height="312" x="-101.4" y="-106" xlink:href="#B2"/><use width="202.8" height="312" x="-101.4" y="-106" xlink:href="#B3"/><use width="202.8" height="312" x="-101.4" y="-106" xlink:href="#B4"/></svg>